<svg xmlns="http://www.w3.org/2000/svg" width="53.438" height="52.25" viewBox="0 0 53.438 52.25">
  <defs>
    <style>
      .cls-1 {
        fill: #d8070f;
        fill-rule: evenodd;
      }
    </style>
  </defs>
  <path class="cls-1" d="M839.752,1189.66l1.064-21.93h-7.7l1.113,21.93h5.518Zm-2.759,11.23a4.405,4.405,0,1,0-4.356-4.41A4.17,4.17,0,0,0,836.993,1200.89ZM838,1201c20.486,0.89,29.231-33.68,25-21-2.28,9.03,1.347,10.77-18,27-4.156,3.49-2.642,10-7,13-2.033-2.03-3.375-5.71-7-13-8.418-4.3-13.945-12.37-18-21C805.386,1175.02,819.671,1201,838,1201Z" transform="translate(-810.906 -1167.75)"/>
</svg>
